<?xml version="1.0" encoding="UTF-8"?>
<svg id="Website" xmlns="http://www.w3.org/2000/svg" viewBox="0 0 11335.18 7398">
  <defs>
    <style>
      .cls-1 {
        fill: #fff;
      }
    </style>
  </defs>
  <path class="cls-1" d="M5938.19,26.35c2.33-7.63,16.77-16.52,26.18-16.11,1646.38,177.71,3046.02,1536.72,3253.7,3182.98,294.59,2335.21-1541.51,4308.86-3885.02,4200.52-1955.11-90.38-3510.52-1796.64-3496.77-3738.63,12.02-1698.08,1280.28-3265.16,2953.66-3588.62C5061.05,14.08,5336.03-.28,5612.23,0l-.49,3623.5c3.42,604.36,526.29,1010,1115.13,830.31,433.23-132.2,667.22-664.82,502.22-1080.49-136.29-343.35-422.73-500.59-780.98-533.61-170.59-15.72-562.5-4.4-562.5-15.92v-594.19c335.31-2.02,654.96-20.12,980.32,76.61,1137.36,338.11,1369.55,1866.39,394.5,2533.93-942.81,645.48-2181.86-18.83-2237.64-1132.5l.38-3118.61c-507.44,93.01-997.36,303.57-1403.63,620.74-2028.43,1583.57-1413.82,4795.53,1054.37,5507.48,2428.76,700.57,4629.42-1597.86,3864.71-4001.42-367.14-1153.98-1403.12-1989.66-2600.43-2147.86V26.35Z"/>
  <path class="cls-1" d="M4791.87,2229.6v609.97h-268.18c-205.31,0-407.24,205.96-422.83,407.99-32.61,619.88-2.14,1244.97-15.77,1866.72l-602.61,606.81-5.65-2413.97c27.34-337.41,156.21-655.58,432.53-861.02,258.72-192.35,566.59-231.04,882.5-216.5Z"/>
</svg>