<?xml version="1.0" encoding="UTF-8"?>
<svg id="Layer_1" data-name="Layer 1" xmlns="http://www.w3.org/2000/svg" viewBox="0 0 354.98 354.99">
  <defs>
    <style>
      .cls-1 {
        fill: #fff;
      }
    </style>
  </defs>
  <g>
    <path class="cls-1" d="M350.77,233.63c2.37,0,4.97-4.81,3.74-7.47-.18-.38-2.78-3.01-2.99-3.01h-22.83v-40.42h22.83c1.12,0,3.55-3.83,3.45-5.61-.08-1.42-2.67-4.87-3.45-4.87h-22.83v-40.42h22.83c.21,0,2.81-2.63,2.99-3.01,1.23-2.66-1.36-7.47-3.74-7.47h-22.08v-40.42h22.83c4.52,0,4.44-10.48-1.5-10.48h-21.33V31.15c0-1.45-3.42-4.87-4.87-4.87h-39.3V4.95c0-5.93-10.48-6.02-10.48-1.5v22.83h-40.42V4.2c0-2.37-4.81-4.97-7.47-3.74-.38.18-3.01,2.78-3.01,2.99v22.83h-40.42V3.45c0-.78-3.45-3.37-4.87-3.45-1.78-.1-5.61,2.33-5.61,3.45v22.83h-40.42V3.45c0-.21-2.63-2.81-3.01-2.99-2.66-1.23-7.47,1.36-7.47,3.74v22.08h-40.42V3.45c0-4.52-10.48-4.44-10.48,1.5v21.33H31.15c-1.45,0-4.87,3.42-4.87,4.87v39.3H4.95c-5.93,0-6.02,10.48-1.5,10.48h22.83v40.42H4.2c-2.37,0-4.97,4.81-3.74,7.47.18.38,2.78,3.01,2.99,3.01h22.83v40.42H3.45c-1.12,0-3.55,3.83-3.45,5.61.08,1.42,2.67,4.87,3.45,4.87h22.83v40.42H3.45c-.21,0-2.81,2.63-2.99,3.01-1.23,2.66,1.36,7.47,3.74,7.47h22.08v40.42H3.45c-4.52,0-4.44,10.48,1.5,10.48h21.33v39.3c0,1.45,3.42,4.87,4.87,4.87h39.3v21.33c0,5.93,10.48,6.02,10.48,1.5v-22.83h40.42v22.08c0,2.37,4.81,4.97,7.47,3.74.38-.18,3.01-2.78,3.01-2.99v-22.83h40.42v22.83c0,1.12,3.83,3.55,5.61,3.45,1.42-.08,4.87-2.67,4.87-3.45v-22.83h40.42v22.83c0,.21,2.63,2.81,3.01,2.99,2.66,1.23,7.47-1.36,7.47-3.74v-22.08h40.42v22.83c0,4.52,10.48,4.44,10.48-1.5v-21.33h39.3c1.45,0,4.87-3.42,4.87-4.87v-39.3h21.33c5.93,0,6.02-10.48,1.5-10.48h-22.83v-40.42h22.08,0ZM318.21,317.09c0,.08-1.04,1.12-1.12,1.12H37.88c-.08,0-1.12-1.04-1.12-1.12V37.88c0-.2.88-.74,1.12-1.12h279.2c.08,0,1.12,1.04,1.12,1.12v279.2h0Z"/>
    <path class="cls-1" d="M63.71,88.03c-1.02,3.68-8.74,4.22-10.16-1.82-.98-4.18-.87-21.92-.34-26.64.45-4.04,2.32-5.92,6.37-6.37,4.72-.53,22.46-.64,26.64.34,7.24,1.7,4.13,10.16,1.82,10.16h-23.2c-.08,0-1.12,1.04-1.12,1.12,0,4.9.97,19.71,0,23.2h0Z"/>
    <path class="cls-1" d="M266.93,63.71c-3.68-1.02-4.22-8.74,1.82-10.16,4.18-.98,21.92-.87,26.64-.34,4.04.45,5.92,2.32,6.37,6.37.53,4.72.64,22.46-.34,26.64-1.7,7.24-10.16,4.13-10.16,1.82v-23.2c0-.08-1.04-1.12-1.12-1.12-4.9,0-19.71.97-23.2,0h-.01Z"/>
    <path class="cls-1" d="M88.03,291.26c3.68,1.02,4.22,8.74-1.82,10.16-4.18.98-21.92.87-26.64.34-4.04-.45-5.92-2.32-6.37-6.37-.53-4.72-.64-22.46.34-26.64,1.7-7.24,10.16-4.13,10.16-1.82v23.2c0,.08,1.04,1.12,1.12,1.12,4.9,0,19.71-.97,23.2,0h0Z"/>
    <path class="cls-1" d="M291.26,266.93c1.02-3.68,8.74-4.22,10.16,1.82.98,4.18.87,21.92.34,26.64-.45,4.04-2.32,5.92-6.37,6.37-4.72.53-22.46.64-26.64-.34-7.24-1.7-4.13-10.16-1.82-10.16h23.2c.08,0,1.12-1.04,1.12-1.12,0-4.9-.97-19.71,0-23.2h.01Z"/>
  </g>
  <g>
    <path class="cls-1" d="M125.91,159.7c-.55-1.78-1.3-3.39-2.26-4.81s-2.1-2.64-3.44-3.65c-1.33-1.01-2.86-1.78-4.57-2.3-1.72-.52-3.59-.78-5.61-.78-3.63,0-6.87.91-9.71,2.74s-5.07,4.51-6.69,8.04-2.43,7.83-2.43,12.9.8,9.43,2.41,12.98c1.61,3.54,3.84,6.24,6.7,8.08s6.19,2.76,9.97,2.76c3.43,0,6.41-.66,8.93-1.98,2.52-1.32,4.46-3.2,5.83-5.63,1.36-2.43,2.05-5.29,2.05-8.57l2.78.43h-18.36v-9.58h27.44v8.12c0,5.79-1.23,10.8-3.7,15.03s-5.86,7.48-10.17,9.76c-4.32,2.28-9.27,3.42-14.86,3.42-6.23,0-11.7-1.4-16.4-4.21-4.7-2.81-8.37-6.8-11-11.99-2.63-5.18-3.95-11.34-3.95-18.48,0-5.46.78-10.34,2.33-14.63,1.55-4.29,3.73-7.94,6.52-10.95,2.8-3.01,6.08-5.29,9.84-6.87,3.76-1.57,7.86-2.36,12.29-2.36,3.74,0,7.23.54,10.47,1.63s6.11,2.64,8.64,4.64c2.52,2,4.6,4.38,6.22,7.13,1.63,2.75,2.7,5.79,3.2,9.12h-12.48,0Z"/>
    <path class="cls-1" d="M154.25,205.74v-67.64h25.36c5.2,0,9.56.97,13.09,2.91s6.21,4.6,8.02,7.98c1.82,3.38,2.72,7.22,2.72,11.51s-.91,8.19-2.74,11.56-4.52,6.02-8.09,7.94-7.96,2.89-13.18,2.89h-16.81v-10.07h15.16c3.04,0,5.53-.53,7.46-1.59,1.94-1.06,3.37-2.51,4.31-4.36s1.4-3.97,1.4-6.37-.47-4.51-1.4-6.34c-.94-1.83-2.38-3.25-4.33-4.28-1.95-1.02-4.45-1.54-7.51-1.54h-11.23v57.4h-12.25.02Z"/>
    <path class="cls-1" d="M260.17,138.1h12.25v44.19c0,4.84-1.14,9.1-3.42,12.78s-5.48,6.54-9.59,8.6c-4.12,2.06-8.93,3.09-14.43,3.09s-10.35-1.03-14.46-3.09c-4.12-2.06-7.31-4.93-9.58-8.6-2.27-3.68-3.4-7.94-3.4-12.78v-44.19h12.25v43.16c0,2.82.62,5.33,1.87,7.53,1.24,2.2,3,3.92,5.27,5.17,2.27,1.24,4.95,1.87,8.06,1.87s5.8-.62,8.08-1.87c2.28-1.24,4.03-2.97,5.27-5.17,1.23-2.2,1.85-4.71,1.85-7.53v-43.16h-.02Z"/>
  </g>
</svg>